<svg width="32" height="32" viewBox="0 0 32 32" fill="#FFB100" xmlns="http://www.w3.org/2000/svg">
<path d="M31.7806 11.7258C31.5079 10.8577 30.963 10.1003 30.2266 9.56584C29.4901 9.03134 28.6012 8.74803 27.6913 8.7578H21.8659L20.0966 3.24313C19.8184 2.37508 19.2716 1.61782 18.5352 1.08056C17.7988 0.54329 16.9108 0.253784 15.9993 0.253784C15.0877 0.253784 14.1997 0.54329 13.4633 1.08056C12.7269 1.61782 12.1802 2.37508 11.9019 3.24313L10.1326 8.7578H4.30728C3.40027 8.75909 2.51687 9.04698 1.78325 9.58034C1.04964 10.1137 0.503335 10.8653 0.222376 11.7277C-0.0585833 12.59 -0.0598268 13.5192 0.218823 14.3823C0.497472 15.2455 1.04176 15.9985 1.77395 16.5338L6.51528 20.0005L4.71261 25.5831C4.4213 26.449 4.41761 27.3858 4.70209 28.2539C4.98658 29.122 5.54401 29.875 6.29128 30.4005C7.02575 30.9428 7.9158 31.2334 8.82882 31.2288C9.74183 31.2243 10.6289 30.9248 11.3579 30.3751L15.9993 26.9591L20.6419 30.3711C21.3751 30.9104 22.2603 31.2033 23.1704 31.2077C24.0805 31.2122 24.9686 30.9279 25.707 30.3958C26.4453 29.8637 26.9959 29.1112 27.2797 28.2464C27.5634 27.3817 27.5656 26.4492 27.2859 25.5831L25.4833 20.0005L30.2299 16.5338C30.9705 16.0052 31.5212 15.2522 31.8005 14.3863C32.0797 13.5203 32.0728 12.5875 31.7806 11.7258ZM28.6566 14.3805L23.1313 18.4191C22.9043 18.5847 22.7355 18.8177 22.6488 19.0849C22.5621 19.3521 22.5621 19.6399 22.6486 19.9071L24.7486 26.4005C24.8549 26.7298 24.854 27.0844 24.746 27.4132C24.6381 27.7419 24.4286 28.028 24.1479 28.2303C23.8671 28.4326 23.5294 28.5406 23.1833 28.5388C22.8372 28.537 22.5007 28.4256 22.2219 28.2205L16.7886 24.2205C16.5598 24.0524 16.2832 23.9617 15.9993 23.9617C15.7153 23.9617 15.4388 24.0524 15.2099 24.2205L9.77661 28.2205C9.49806 28.4284 9.16053 28.5421 8.81297 28.5453C8.4654 28.5484 8.12587 28.4408 7.84359 28.238C7.5613 28.0352 7.35095 27.7478 7.24301 27.4174C7.13507 27.087 7.13517 26.7308 7.24328 26.4005L9.34995 19.9071C9.4365 19.6399 9.43644 19.3521 9.34976 19.0849C9.26309 18.8177 9.09423 18.5847 8.86728 18.4191L3.34195 14.3805C3.06369 14.1767 2.85693 13.8903 2.7512 13.562C2.64548 13.2337 2.6462 12.8804 2.75326 12.5526C2.86032 12.2248 3.06825 11.9391 3.34734 11.7365C3.62643 11.5339 3.9624 11.4247 4.30728 11.4245H11.1073C11.3896 11.4245 11.6646 11.3349 11.8927 11.1686C12.1208 11.0023 12.2902 10.7679 12.3766 10.4991L14.4433 4.0578C14.5494 3.72818 14.7573 3.44072 15.0372 3.2368C15.317 3.03288 15.6543 2.92301 16.0006 2.92301C16.3469 2.92301 16.6842 3.03288 16.9641 3.2368C17.2439 3.44072 17.4519 3.72818 17.5579 4.0578L19.6246 10.4991C19.711 10.7679 19.8804 11.0023 20.1086 11.1686C20.3367 11.3349 20.6117 11.4245 20.8939 11.4245H27.6939C28.0388 11.4247 28.3748 11.5339 28.6539 11.7365C28.933 11.9391 29.1409 12.2248 29.248 12.5526C29.355 12.8804 29.3557 13.2337 29.25 13.562C29.1443 13.8903 28.9375 14.1767 28.6593 14.3805H28.6566Z" fill="#A6ACB9"/>
</svg>
