<svg width="14" height="15" viewBox="0 0 14 15" fill="none" xmlns="http://www.w3.org/2000/svg">
<g clip-path="url(#clip0_2426_9904)">
<path d="M2.37258 11H11.5052C11.7863 11 12.0633 10.9323 12.3126 10.8026C12.562 10.673 12.7765 10.4852 12.9379 10.2551C13.0993 10.025 13.203 9.75938 13.24 9.48077C13.2771 9.20215 13.2465 8.91871 13.1508 8.65442L11.4872 4.05483C11.203 3.03266 10.5919 2.13169 9.74726 1.48972C8.9026 0.847754 7.87092 0.500124 6.81 0.5V0.5C5.70559 0.499983 4.63419 0.876593 3.7727 1.56765C2.91122 2.25871 2.31115 3.22289 2.07158 4.301L0.700747 8.73433C0.620037 8.99607 0.601892 9.27311 0.647774 9.54314C0.693655 9.81317 0.80228 10.0687 0.96491 10.2891C1.12754 10.5095 1.33963 10.6886 1.58412 10.8121C1.82862 10.9356 2.09868 10.9999 2.37258 11V11Z" fill="#4267B2"/>
<path d="M4.14062 12.1665C4.27451 12.8258 4.63222 13.4186 5.15314 13.8444C5.67406 14.2702 6.32617 14.5028 6.99896 14.5028C7.67175 14.5028 8.32385 14.2702 8.84478 13.8444C9.3657 13.4186 9.72341 12.8258 9.85729 12.1665H4.14062Z" fill="#4267B2"/>
</g>
<defs>
<clipPath id="clip0_2426_9904">
<rect width="14" height="14" fill="white" transform="translate(0 0.5)"/>
</clipPath>
</defs>
</svg>
