<svg width="14" height="15" viewBox="0 0 14 15" fill="none" xmlns="http://www.w3.org/2000/svg">
<g clip-path="url(#clip0_2426_10105)">
<path d="M13.1562 8.4694L12.0479 4.48173C11.723 3.31351 11.017 2.2874 10.042 1.56651C9.06701 0.845615 7.87904 0.47131 6.66691 0.50309C5.45477 0.53487 4.28804 0.970911 3.35217 1.7419C2.4163 2.5129 1.765 3.57459 1.5018 4.75823L0.643718 8.61698C0.548936 9.04336 0.551127 9.48559 0.650131 9.911C0.749134 10.3364 0.942422 10.7342 1.21572 11.0749C1.48903 11.4156 1.83536 11.6906 2.22917 11.8795C2.62297 12.0685 3.05418 12.1666 3.49097 12.1666H4.1408C4.27469 12.8259 4.63239 13.4187 5.15332 13.8445C5.67424 14.2702 6.32634 14.5028 6.99913 14.5028C7.67193 14.5028 8.32403 14.2702 8.84495 13.8445C9.36588 13.4187 9.72358 12.8259 9.85747 12.1666H10.3463C10.7959 12.1666 11.2395 12.0627 11.6423 11.8629C12.0452 11.6631 12.3963 11.3729 12.6684 11.015C12.9406 10.657 13.1262 10.241 13.2109 9.79942C13.2957 9.35784 13.2771 8.90264 13.1568 8.4694H13.1562ZM6.99913 13.3332C6.63848 13.3317 6.2871 13.2189 5.99306 13.01C5.69902 12.8012 5.47668 12.5066 5.35647 12.1666H8.6418C8.52159 12.5066 8.29925 12.8012 8.00521 13.01C7.71117 13.2189 7.35979 13.3317 6.99913 13.3332ZM11.7393 10.3087C11.5768 10.5243 11.3662 10.699 11.1242 10.819C10.8823 10.939 10.6158 11.001 10.3457 10.9999H3.49097C3.22893 10.9999 2.97024 10.941 2.734 10.8276C2.49776 10.7142 2.29 10.5492 2.12606 10.3448C1.96212 10.1403 1.84618 9.9017 1.7868 9.64648C1.72741 9.39125 1.72611 9.12595 1.78297 8.87015L2.64047 5.01082C2.84717 4.0811 3.35873 3.24717 4.09382 2.64158C4.8289 2.03599 5.74533 1.6935 6.69742 1.66856C7.64951 1.64362 8.58261 1.93765 9.3484 2.50392C10.1142 3.0702 10.6687 3.8762 10.9238 4.79382L12.0321 8.78148C12.1054 9.04128 12.117 9.31458 12.0662 9.57967C12.0154 9.84477 11.9034 10.0944 11.7393 10.3087Z" fill="#757C8A"/>
</g>
<defs>
<clipPath id="clip0_2426_10105">
<rect width="14" height="14" fill="white" transform="translate(0 0.5)"/>
</clipPath>
</defs>
</svg>
