<svg width="14" height="14" viewBox="0 0 14 14" fill="none" xmlns="http://www.w3.org/2000/svg">
<g clip-path="url(#clip0_1220_10305)">
<path d="M13.157 7.9694L12.0486 3.98173C11.7238 2.81351 11.0177 1.7874 10.0427 1.06651C9.06775 0.345615 7.87977 -0.0286905 6.66764 0.0030896C5.4555 0.0348697 4.28877 0.470911 3.3529 1.2419C2.41704 2.0129 1.76574 3.07459 1.50253 4.25823L0.644451 8.11698C0.549668 8.54336 0.551859 8.98559 0.650863 9.411C0.749867 9.83642 0.943155 10.2342 1.21646 10.5749C1.48976 10.9156 1.8361 11.1906 2.2299 11.3795C2.6237 11.5685 3.05491 11.6666 3.4917 11.6666H4.14153C4.27542 12.3259 4.63313 12.9187 5.15405 13.3445C5.67497 13.7702 6.32708 14.0028 6.99987 14.0028C7.67266 14.0028 8.32476 13.7702 8.84569 13.3445C9.36661 12.9187 9.72432 12.3259 9.8582 11.6666H10.347C10.7967 11.6666 11.2402 11.5627 11.6431 11.3629C12.0459 11.1631 12.3971 10.8729 12.6692 10.515C12.9413 10.157 13.127 9.74101 13.2117 9.29942C13.2964 8.85784 13.2779 8.40264 13.1575 7.9694H13.157ZM6.99987 12.8332C6.63922 12.8317 6.28783 12.7189 5.99379 12.51C5.69975 12.3012 5.47742 12.0066 5.3572 11.6666H8.64253C8.52232 12.0066 8.29998 12.3012 8.00594 12.51C7.7119 12.7189 7.36052 12.8317 6.99987 12.8332ZM11.74 9.80865C11.5775 10.0243 11.3669 10.199 11.125 10.319C10.8831 10.439 10.6165 10.501 10.3465 10.4999H3.4917C3.22966 10.4999 2.97097 10.441 2.73473 10.3276C2.4985 10.2142 2.29074 10.0492 2.1268 9.84476C1.96285 9.64033 1.84691 9.4017 1.78753 9.14648C1.72815 8.89125 1.72684 8.62595 1.7837 8.37015L2.6412 4.51082C2.84791 3.5811 3.35946 2.74717 4.09455 2.14158C4.82964 1.53599 5.74607 1.1935 6.69815 1.16856C7.65024 1.14362 8.58334 1.43765 9.34913 2.00392C10.1149 2.5702 10.6694 3.3762 10.9245 4.29382L12.0329 8.28148C12.1061 8.54128 12.1178 8.81458 12.0669 9.07967C12.0161 9.34477 11.9042 9.59437 11.74 9.80865Z" fill="#2F4F98"/>
</g>
<defs>
<clipPath id="clip0_1220_10305">
<rect width="14" height="14" fill="white"/>
</clipPath>
</defs>
</svg>
