<svg width="14" height="14" viewBox="0 0 14 14" fill="none" xmlns="http://www.w3.org/2000/svg">
<g clip-path="url(#clip0_1220_10275)">
<path d="M9.91675 8.16668C9.91675 8.32139 9.85529 8.46976 9.74589 8.57916C9.6365 8.68855 9.48812 8.75001 9.33341 8.75001H4.66675C4.51204 8.75001 4.36367 8.68855 4.25427 8.57916C4.14487 8.46976 4.08341 8.32139 4.08341 8.16668C4.08341 8.01197 4.14487 7.8636 4.25427 7.7542C4.36367 7.6448 4.51204 7.58335 4.66675 7.58335H9.33341C9.48812 7.58335 9.6365 7.6448 9.74589 7.7542C9.85529 7.8636 9.91675 8.01197 9.91675 8.16668ZM7.58341 9.91668H4.66675C4.51204 9.91668 4.36367 9.97814 4.25427 10.0875C4.14487 10.1969 4.08341 10.3453 4.08341 10.5C4.08341 10.6547 4.14487 10.8031 4.25427 10.9125C4.36367 11.0219 4.51204 11.0833 4.66675 11.0833H7.58341C7.73812 11.0833 7.8865 11.0219 7.99589 10.9125C8.10529 10.8031 8.16675 10.6547 8.16675 10.5C8.16675 10.3453 8.10529 10.1969 7.99589 10.0875C7.8865 9.97814 7.73812 9.91668 7.58341 9.91668ZM12.8334 6.11626V11.0833C12.8325 11.8566 12.5249 12.5979 11.9781 13.1447C11.4313 13.6915 10.69 13.9991 9.91675 14H4.08341C3.31015 13.9991 2.56882 13.6915 2.02204 13.1447C1.47526 12.5979 1.16767 11.8566 1.16675 11.0833V2.91668C1.16767 2.14342 1.47526 1.40209 2.02204 0.855308C2.56882 0.308528 3.31015 0.000939695 4.08341 1.34451e-05H6.71716C7.25361 -0.00136726 7.785 0.103606 8.28063 0.308865C8.77625 0.514123 9.22627 0.815594 9.60466 1.19585L11.637 3.22935C12.0175 3.60749 12.3191 4.05736 12.5245 4.55292C12.7299 5.04847 12.8349 5.57984 12.8334 6.11626ZM8.77983 2.02068C8.59624 1.84286 8.39013 1.68989 8.16675 1.56568V4.08335C8.16675 4.23806 8.22821 4.38643 8.3376 4.49583C8.447 4.60522 8.59537 4.66668 8.75008 4.66668H11.2677C11.1435 4.44337 10.9903 4.23743 10.8122 4.05418L8.77983 2.02068ZM11.6667 6.11626C11.6667 6.02001 11.6481 5.92785 11.6393 5.83335H8.75008C8.28595 5.83335 7.84083 5.64897 7.51264 5.32078C7.18446 4.99259 7.00008 4.54748 7.00008 4.08335V1.1941C6.90558 1.18535 6.81283 1.16668 6.71716 1.16668H4.08341C3.61929 1.16668 3.17417 1.35105 2.84598 1.67924C2.51779 2.00743 2.33341 2.45255 2.33341 2.91668V11.0833C2.33341 11.5475 2.51779 11.9926 2.84598 12.3208C3.17417 12.649 3.61929 12.8333 4.08341 12.8333H9.91675C10.3809 12.8333 10.826 12.649 11.1542 12.3208C11.4824 11.9926 11.6667 11.5475 11.6667 11.0833V6.11626Z" fill="#2F4F98"/>
</g>
<defs>
<clipPath id="clip0_1220_10275">
<rect width="14" height="14" fill="white"/>
</clipPath>
</defs>
</svg>
