<svg width="14" height="14" viewBox="0 0 14 14" fill="none" xmlns="http://www.w3.org/2000/svg">
<g clip-path="url(#clip0_938_10739)">
<path d="M11.0833 0.583252H2.91667C2.1434 0.584178 1.40208 0.891766 0.855295 1.43855C0.308515 1.98533 0.00092625 2.72666 0 3.49992L0 10.4999C0.00092625 11.2732 0.308515 12.0145 0.855295 12.5613C1.40208 13.1081 2.1434 13.4157 2.91667 13.4166H11.0833C11.8566 13.4157 12.5979 13.1081 13.1447 12.5613C13.6915 12.0145 13.9991 11.2732 14 10.4999V3.49992C13.9991 2.72666 13.6915 1.98533 13.1447 1.43855C12.5979 0.891766 11.8566 0.584178 11.0833 0.583252ZM2.91667 1.74992H11.0833C11.4326 1.75061 11.7737 1.8558 12.0627 2.05197C12.3517 2.24814 12.5754 2.5263 12.705 2.85067L8.23783 7.31842C7.90908 7.64585 7.46399 7.82969 7 7.82969C6.53601 7.82969 6.09092 7.64585 5.76217 7.31842L1.295 2.85067C1.42459 2.5263 1.64827 2.24814 1.93728 2.05197C2.22628 1.8558 2.56738 1.75061 2.91667 1.74992ZM11.0833 12.2499H2.91667C2.45254 12.2499 2.00742 12.0655 1.67923 11.7374C1.35104 11.4092 1.16667 10.964 1.16667 10.4999V4.37492L4.93733 8.14325C5.48487 8.6894 6.22665 8.99611 7 8.99611C7.77335 8.99611 8.51513 8.6894 9.06267 8.14325L12.8333 4.37492V10.4999C12.8333 10.964 12.649 11.4092 12.3208 11.7374C11.9926 12.0655 11.5475 12.2499 11.0833 12.2499Z" fill="#2F4F98"/>
</g>
<defs>
<clipPath id="clip0_938_10739">
<rect width="14" height="14" fill="white"/>
</clipPath>
</defs>
</svg>
