<svg width="14" height="13" viewBox="0 0 14 13" fill="none" xmlns="http://www.w3.org/2000/svg">
<path d="M10.2082 0.618042C9.55136 0.628259 8.90883 0.811623 8.34551 1.14962C7.78218 1.48761 7.31802 1.96827 6.99989 2.54304C6.68177 1.96827 6.21761 1.48761 5.65428 1.14962C5.09096 0.811623 4.44842 0.628259 3.79156 0.618042C2.74444 0.663537 1.75789 1.12161 1.04743 1.89218C0.336979 2.66275 -0.0396269 3.68318 -0.000105711 4.73054C-0.000105711 7.38296 2.79173 10.2798 5.13323 12.2439C5.65602 12.6832 6.31702 12.9241 6.99989 12.9241C7.68277 12.9241 8.34377 12.6832 8.86656 12.2439C11.2081 10.2798 13.9999 7.38296 13.9999 4.73054C14.0394 3.68318 13.6628 2.66275 12.9524 1.89218C12.2419 1.12161 11.2553 0.663537 10.2082 0.618042Z" fill="#4267B2"/>
</svg>
