<svg width="16" height="15" viewBox="0 0 16 15" fill="none" xmlns="http://www.w3.org/2000/svg">
<path d="M11.6667 0.277699C10.916 0.289375 10.1817 0.498934 9.53789 0.885213C8.8941 1.27149 8.36363 1.82081 8.00005 2.4777C7.63648 1.82081 7.10601 1.27149 6.46221 0.885213C5.81841 0.498934 5.08409 0.289375 4.33339 0.277699C3.13668 0.329692 2.00919 0.853201 1.19724 1.73385C0.385293 2.61451 -0.0451134 3.78072 5.35736e-05 4.9777C5.35736e-05 8.00903 3.19072 11.3197 5.86672 13.5644C6.4642 14.0665 7.21962 14.3417 8.00005 14.3417C8.78048 14.3417 9.53591 14.0665 10.1334 13.5644C12.8094 11.3197 16.0001 8.00903 16.0001 4.9777C16.0452 3.78072 15.6148 2.61451 14.8029 1.73385C13.9909 0.853201 12.8634 0.329692 11.6667 0.277699ZM9.27672 12.5444C8.91937 12.8453 8.46722 13.0103 8.00005 13.0103C7.53288 13.0103 7.08073 12.8453 6.72339 12.5444C3.29805 9.67037 1.33339 6.91303 1.33339 4.9777C1.28781 4.13418 1.57763 3.30685 2.13963 2.67617C2.70163 2.04548 3.49021 1.6626 4.33339 1.61103C5.17656 1.6626 5.96515 2.04548 6.52714 2.67617C7.08914 3.30685 7.37896 4.13418 7.33339 4.9777C7.33339 5.15451 7.40362 5.32408 7.52865 5.4491C7.65367 5.57413 7.82324 5.64437 8.00005 5.64437C8.17686 5.64437 8.34643 5.57413 8.47146 5.4491C8.59648 5.32408 8.66672 5.15451 8.66672 4.9777C8.62115 4.13418 8.91096 3.30685 9.47296 2.67617C10.035 2.04548 10.8235 1.6626 11.6667 1.61103C12.5099 1.6626 13.2985 2.04548 13.8605 2.67617C14.4225 3.30685 14.7123 4.13418 14.6667 4.9777C14.6667 6.91303 12.7021 9.67037 9.27672 12.5417V12.5444Z" fill="#232834"/>
</svg>
