<svg width="16" height="15" viewBox="0 0 16 15" fill="none" xmlns="http://www.w3.org/2000/svg">
<path d="M11.6667 0.277699C10.916 0.289375 10.1817 0.498934 9.53789 0.885213C8.8941 1.27149 8.36363 1.82081 8.00005 2.4777C7.63648 1.82081 7.10601 1.27149 6.46221 0.885213C5.81841 0.498934 5.08409 0.289375 4.33339 0.277699C3.13668 0.329692 2.00919 0.853201 1.19724 1.73385C0.385293 2.61451 -0.0451134 3.78072 5.35735e-05 4.9777C5.35735e-05 8.00903 3.19072 11.3197 5.86672 13.5644C6.4642 14.0665 7.21962 14.3417 8.00005 14.3417C8.78048 14.3417 9.53591 14.0665 10.1334 13.5644C12.8094 11.3197 16.0001 8.00903 16.0001 4.9777C16.0452 3.78072 15.6148 2.61451 14.8029 1.73385C13.9909 0.853201 12.8634 0.329692 11.6667 0.277699Z" fill="#D71D1D"/>
</svg>
