<svg width="14" height="13" viewBox="0 0 14 13" fill="none" xmlns="http://www.w3.org/2000/svg">
<path d="M10.2082 0.61792C9.55137 0.628137 8.90883 0.811501 8.34551 1.14949C7.78218 1.48749 7.31802 1.96814 6.99989 2.54292C6.68177 1.96814 6.21761 1.48749 5.65428 1.14949C5.09096 0.811501 4.44842 0.628137 3.79156 0.61792C2.74444 0.663415 1.75789 1.12148 1.04743 1.89206C0.336979 2.66263 -0.0396269 3.68306 -0.00010571 4.73042C-0.00010571 7.38284 2.79173 10.2797 5.13323 12.2438C5.65602 12.6831 6.31702 12.9239 6.99989 12.9239C7.68277 12.9239 8.34377 12.6831 8.86656 12.2438C11.2081 10.2797 13.9999 7.38284 13.9999 4.73042C14.0394 3.68306 13.6628 2.66263 12.9524 1.89206C12.2419 1.12148 11.2553 0.663415 10.2082 0.61792ZM8.11698 11.3513C7.8043 11.6146 7.40867 11.7589 6.99989 11.7589C6.59112 11.7589 6.19549 11.6146 5.88281 11.3513C2.88564 8.8365 1.16656 6.42384 1.16656 4.73042C1.12668 3.99234 1.38027 3.26843 1.87202 2.71658C2.36377 2.16473 3.05378 1.82971 3.79156 1.78459C4.52934 1.82971 5.21935 2.16473 5.7111 2.71658C6.20285 3.26843 6.45644 3.99234 6.41656 4.73042C6.41656 4.88513 6.47802 5.0335 6.58742 5.1429C6.69681 5.2523 6.84518 5.31375 6.99989 5.31375C7.1546 5.31375 7.30298 5.2523 7.41237 5.1429C7.52177 5.0335 7.58323 4.88513 7.58323 4.73042C7.54335 3.99234 7.79694 3.26843 8.28869 2.71658C8.78044 2.16473 9.47045 1.82971 10.2082 1.78459C10.946 1.82971 11.636 2.16473 12.1278 2.71658C12.6195 3.26843 12.8731 3.99234 12.8332 4.73042C12.8332 6.42384 11.1141 8.8365 8.11698 11.3489V11.3513Z" fill="#757C8A"/>
</svg>
