<svg width="16" height="16" viewBox="0 0 16 16" fill="none" xmlns="http://www.w3.org/2000/svg">
<path d="M8.73333 12.6666C8.60148 12.6661 8.47276 12.6264 8.36344 12.5527C8.25411 12.479 8.1691 12.3745 8.11915 12.2525C8.0692 12.1305 8.05655 11.9964 8.08281 11.8672C8.10907 11.738 8.17305 11.6195 8.26666 11.5266L11.3333 8.47329C11.3958 8.41132 11.4454 8.33758 11.4793 8.25634C11.5131 8.1751 11.5305 8.08797 11.5305 7.99996C11.5305 7.91195 11.5131 7.82481 11.4793 7.74357C11.4454 7.66233 11.3958 7.5886 11.3333 7.52663L8.26666 4.47329C8.20418 4.41132 8.15458 4.33758 8.12074 4.25634C8.08689 4.1751 8.06946 4.08797 8.06946 3.99996C8.06946 3.91195 8.08689 3.82481 8.12074 3.74357C8.15458 3.66233 8.20418 3.5886 8.26666 3.52663C8.39157 3.40246 8.56054 3.33276 8.73666 3.33276C8.91279 3.33276 9.08176 3.40246 9.20667 3.52663L12.2667 6.58663C12.6412 6.96163 12.8516 7.46996 12.8516 7.99996C12.8516 8.52996 12.6412 9.03829 12.2667 9.41329L9.20667 12.4733C9.14437 12.5351 9.07049 12.584 8.98927 12.6171C8.90804 12.6503 8.82107 12.6671 8.73333 12.6666Z" fill="white"/>
<path d="M4.0667 12.6666C3.93486 12.6661 3.80613 12.6264 3.69681 12.5527C3.58749 12.479 3.50248 12.3745 3.45253 12.2525C3.40257 12.1305 3.38993 11.9964 3.41619 11.8672C3.44244 11.738 3.50642 11.6195 3.60004 11.5266L7.1267 7.99996L3.60004 4.47329C3.53755 4.41132 3.48796 4.33758 3.45411 4.25634C3.42026 4.1751 3.40284 4.08797 3.40284 3.99996C3.40284 3.91195 3.42026 3.82481 3.45411 3.74357C3.48796 3.66233 3.53755 3.5886 3.60004 3.52663C3.72495 3.40246 3.89391 3.33276 4.07004 3.33276C4.24616 3.33276 4.41513 3.40246 4.54004 3.52663L8.54004 7.52663C8.60252 7.5886 8.65212 7.66233 8.68597 7.74357C8.71981 7.82481 8.73724 7.91195 8.73724 7.99996C8.73724 8.08797 8.71981 8.1751 8.68597 8.25634C8.65212 8.33758 8.60252 8.41132 8.54004 8.47329L4.54004 12.4733C4.47774 12.5351 4.40387 12.584 4.32264 12.6171C4.24142 12.6503 4.15444 12.6671 4.0667 12.6666Z" fill="white"/>
</svg>
