<svg width="14" height="14" viewBox="0 0 14 14" fill="none" xmlns="http://www.w3.org/2000/svg">
<path d="M12.2498 7.24717V6.4165C12.2498 5.02412 11.6967 3.68876 10.7121 2.70419C9.72757 1.71963 8.39221 1.1665 6.99983 1.1665C5.60744 1.1665 4.27208 1.71963 3.28752 2.70419C2.30295 3.68876 1.74983 5.02412 1.74983 6.4165V7.24717C1.138 7.51657 0.637296 7.98798 0.331525 8.58246C0.0257536 9.17694 -0.066519 9.85842 0.070154 10.5128C0.206827 11.1672 0.56415 11.7548 1.0823 12.1772C1.60046 12.5996 2.24799 12.8312 2.9165 12.8332C3.22591 12.8332 3.52266 12.7103 3.74145 12.4915C3.96025 12.2727 4.08316 11.9759 4.08316 11.6665V8.1665C4.08316 7.85709 3.96025 7.56034 3.74145 7.34155C3.52266 7.12275 3.22591 6.99984 2.9165 6.99984V6.4165C2.9165 5.33354 3.3467 4.29492 4.11248 3.52915C4.87825 2.76338 5.91686 2.33317 6.99983 2.33317C8.0828 2.33317 9.12141 2.76338 9.88718 3.52915C10.653 4.29492 11.0832 5.33354 11.0832 6.4165V6.99984C10.7737 6.99984 10.477 7.12275 10.2582 7.34155C10.0394 7.56034 9.9165 7.85709 9.9165 8.1665V11.6665H8.1665C8.01179 11.6665 7.86341 11.728 7.75402 11.8374C7.64462 11.9468 7.58316 12.0951 7.58316 12.2498C7.58316 12.4045 7.64462 12.5529 7.75402 12.6623C7.86341 12.7717 8.01179 12.8332 8.1665 12.8332H11.0832C11.7517 12.8312 12.3992 12.5996 12.9174 12.1772C13.4355 11.7548 13.7928 11.1672 13.9295 10.5128C14.0662 9.85842 13.9739 9.17694 13.6681 8.58246C13.3624 7.98798 12.8617 7.51657 12.2498 7.24717ZM2.9165 11.6665C2.45237 11.6665 2.00725 11.4821 1.67906 11.1539C1.35087 10.8258 1.1665 10.3806 1.1665 9.9165C1.1665 9.45238 1.35087 9.00726 1.67906 8.67907C2.00725 8.35088 2.45237 8.1665 2.9165 8.1665V11.6665ZM11.0832 11.6665V8.1665C11.5473 8.1665 11.9924 8.35088 12.3206 8.67907C12.6488 9.00726 12.8332 9.45238 12.8332 9.9165C12.8332 10.3806 12.6488 10.8258 12.3206 11.1539C11.9924 11.4821 11.5473 11.6665 11.0832 11.6665Z" fill="#2F4F98"/>
</svg>
