<svg width="14" height="15" viewBox="0 0 14 15" fill="none" xmlns="http://www.w3.org/2000/svg">
<g clip-path="url(#clip0_2426_1952)">
<path d="M7 9.24524C6.03351 9.24524 5.25 10.0287 5.25 10.9952V14.4952H8.75V10.9952C8.75 10.0287 7.96649 9.24524 7 9.24524Z" fill="#4267B2"/>
<path d="M9.91668 10.9954V14.4954H12.25C13.2165 14.4954 14 13.7119 14 12.7454V7.42486C14.0001 7.12181 13.8824 6.8306 13.6716 6.61286L8.71443 1.25376C7.83975 0.30739 6.36352 0.249285 5.41715 1.12396C5.3722 1.16552 5.32889 1.2088 5.28735 1.25376L0.338926 6.61111C0.121762 6.82975 -8.19899e-05 7.12544 4.13938e-08 7.43361V12.7454C4.13938e-08 13.7119 0.783508 14.4954 1.75 14.4954H4.08332V10.9954C4.09423 9.40479 5.37849 8.10586 6.92907 8.06845C8.53152 8.02979 9.90445 9.35084 9.91668 10.9954Z" fill="#4267B2"/>
<path d="M7 9.24524C6.03351 9.24524 5.25 10.0287 5.25 10.9952V14.4952H8.75V10.9952C8.75 10.0287 7.96649 9.24524 7 9.24524Z" fill="#4267B2"/>
</g>
<defs>
<clipPath id="clip0_2426_1952">
<rect width="14" height="14" fill="white" transform="translate(0 0.5)"/>
</clipPath>
</defs>
</svg>
