<svg width="14" height="14" viewBox="0 0 14 14" fill="none" xmlns="http://www.w3.org/2000/svg">
<g clip-path="url(#clip0_1220_10282)">
<path d="M7 0C5.61553 0 4.26216 0.410543 3.11101 1.17971C1.95987 1.94888 1.06266 3.04213 0.532846 4.32122C0.003033 5.6003 -0.13559 7.00777 0.134506 8.36563C0.404603 9.7235 1.07129 10.9708 2.05026 11.9497C3.02922 12.9287 4.2765 13.5954 5.63437 13.8655C6.99224 14.1356 8.3997 13.997 9.67879 13.4672C10.9579 12.9373 12.0511 12.0401 12.8203 10.889C13.5895 9.73785 14 8.38447 14 7C13.998 5.1441 13.2599 3.36479 11.9475 2.05247C10.6352 0.74015 8.8559 0.0020073 7 0V0ZM7 12.8333C5.84628 12.8333 4.71846 12.4912 3.75918 11.8502C2.79989 11.2093 2.05222 10.2982 1.61071 9.23232C1.16919 8.16642 1.05368 6.99353 1.27876 5.86197C1.50384 4.73042 2.05941 3.69102 2.87521 2.87521C3.69102 2.0594 4.73042 1.50383 5.86198 1.27875C6.99353 1.05367 8.16642 1.16919 9.23232 1.6107C10.2982 2.05221 11.2093 2.79989 11.8502 3.75917C12.4912 4.71846 12.8333 5.84628 12.8333 7C12.8316 8.54658 12.2165 10.0293 11.1229 11.1229C10.0293 12.2165 8.54658 12.8316 7 12.8333Z" fill="#2F4F98"/>
<path d="M6.99992 5.8335H6.41658C6.26187 5.8335 6.1135 5.89495 6.00411 6.00435C5.89471 6.11375 5.83325 6.26212 5.83325 6.41683C5.83325 6.57154 5.89471 6.71991 6.00411 6.82931C6.1135 6.9387 6.26187 7.00016 6.41658 7.00016H6.99992V10.5002C6.99992 10.6549 7.06137 10.8032 7.17077 10.9126C7.28017 11.022 7.42854 11.0835 7.58325 11.0835C7.73796 11.0835 7.88633 11.022 7.99573 10.9126C8.10512 10.8032 8.16658 10.6549 8.16658 10.5002V7.00016C8.16658 6.69074 8.04366 6.394 7.82487 6.17521C7.60608 5.95641 7.30934 5.8335 6.99992 5.8335Z" fill="#2F4F98"/>
<path d="M7 4.6665C7.48325 4.6665 7.875 4.27475 7.875 3.7915C7.875 3.30825 7.48325 2.9165 7 2.9165C6.51675 2.9165 6.125 3.30825 6.125 3.7915C6.125 4.27475 6.51675 4.6665 7 4.6665Z" fill="#2F4F98"/>
</g>
<defs>
<clipPath id="clip0_1220_10282">
<rect width="14" height="14" fill="white"/>
</clipPath>
</defs>
</svg>
