<svg width="14" height="14" viewBox="0 0 14 14" fill="none" xmlns="http://www.w3.org/2000/svg">
<g clip-path="url(#clip0_938_10751)">
<path d="M4.37807 13.9998C3.32209 13.9991 2.30199 13.6165 1.506 12.9226C0.71001 12.2287 0.191854 11.2703 0.0471447 10.2243C-0.0975648 9.17829 0.140938 8.11523 0.718642 7.23129C1.29635 6.34735 2.17427 5.70219 3.1904 5.41485C3.92897 5.20335 4.71074 5.19368 5.45432 5.38685L10.0673 0.775017C10.3122 0.528432 10.6036 0.332929 10.9247 0.199848C11.2457 0.0667672 11.59 -0.00124153 11.9375 -0.000233088C12.4844 0.000230331 13.0088 0.217695 13.3955 0.60442C13.7822 0.991144 13.9997 1.51552 14.0001 2.06243C14.0011 2.40998 13.9331 2.75425 13.8001 3.07536C13.6671 3.39646 13.4718 3.68802 13.2255 3.93318L12.8335 4.32518C12.6141 4.54302 12.3178 4.66563 12.0086 4.66643H11.0835V5.24977C11.0835 5.55919 10.9606 5.85593 10.7418 6.07472C10.523 6.29352 10.2262 6.41643 9.91682 6.41643H9.33348V7.3416C9.3339 7.49486 9.3039 7.64668 9.24522 7.78827C9.18654 7.92986 9.10036 8.05839 8.99165 8.16643L8.61248 8.5456C8.80671 9.28882 8.79724 10.0706 8.58507 10.8089C8.34632 11.6501 7.86191 12.4009 7.1939 12.9651C6.52588 13.5293 5.70466 13.8812 4.8354 13.9759C4.68346 13.9916 4.53082 13.9996 4.37807 13.9998ZM4.37807 6.41643C3.78082 6.41585 3.19527 6.582 2.68733 6.89616C2.17938 7.21032 1.76921 7.66003 1.50299 8.19466C1.23677 8.72929 1.12507 9.32761 1.18045 9.92229C1.23584 10.517 1.45611 11.0844 1.81649 11.5606C2.17686 12.0369 2.66302 12.4031 3.22024 12.6181C3.77746 12.8331 4.38363 12.8882 4.97049 12.7773C5.55736 12.6665 6.10163 12.394 6.54204 11.9906C6.98245 11.5872 7.30152 11.0688 7.46332 10.4939C7.64531 9.86191 7.62492 9.18878 7.40498 8.56893C7.36909 8.46542 7.36308 8.35388 7.38763 8.24711C7.41218 8.14033 7.46631 8.04262 7.54382 7.96518L8.16682 7.3416V6.41643C8.16682 6.10701 8.28973 5.81027 8.50852 5.59148C8.72732 5.37268 9.02406 5.24977 9.33348 5.24977H9.91682V4.66643C9.91682 4.35701 10.0397 4.06027 10.2585 3.84148C10.4773 3.62268 10.7741 3.49977 11.0835 3.49977H12.0086L12.4006 3.10777C12.5383 2.97077 12.6474 2.80785 12.7217 2.62843C12.796 2.449 12.834 2.25663 12.8335 2.06243C12.8333 1.82495 12.739 1.59722 12.5711 1.42924C12.4032 1.26126 12.1756 1.16674 11.9381 1.16643C11.7437 1.16596 11.5512 1.20402 11.3717 1.27841C11.1922 1.35281 11.0292 1.46206 10.8921 1.59985L6.0324 6.45902C5.95484 6.53653 5.85701 6.59062 5.75012 6.61507C5.64323 6.63952 5.53161 6.63335 5.42807 6.59727C5.08977 6.47816 4.7338 6.41702 4.37515 6.41643H4.37807ZM2.91682 10.4998C2.91682 10.6151 2.95103 10.7279 3.01513 10.8238C3.07922 10.9198 3.17033 10.9945 3.27692 11.0387C3.38351 11.0828 3.5008 11.0944 3.61395 11.0719C3.72711 11.0494 3.83105 10.9938 3.91263 10.9122C3.99421 10.8307 4.04977 10.7267 4.07227 10.6136C4.09478 10.5004 4.08323 10.3831 4.03908 10.2765C3.99493 10.1699 3.92016 10.0788 3.82423 10.0147C3.7283 9.95064 3.61552 9.91643 3.50015 9.91643C3.34544 9.91643 3.19707 9.97789 3.08767 10.0873C2.97827 10.1967 2.91682 10.3451 2.91682 10.4998Z" fill="#2F4F98"/>
</g>
<defs>
<clipPath id="clip0_938_10751">
<rect width="14" height="14" fill="white"/>
</clipPath>
</defs>
</svg>
