<svg width="14" height="14" viewBox="0 0 14 14" fill="none" xmlns="http://www.w3.org/2000/svg">
<path d="M4.37807 14C3.32209 13.9993 2.30199 13.6167 1.506 12.9228C0.71001 12.229 0.191854 11.2706 0.0471447 10.2246C-0.0975648 9.17854 0.140938 8.11548 0.718642 7.23154C1.29635 6.3476 2.17427 5.70243 3.1904 5.41509C3.92897 5.20359 4.71074 5.19392 5.45432 5.38709L10.0673 0.775261C10.3122 0.528676 10.6036 0.333173 10.9247 0.200092C11.2457 0.0670114 11.59 -0.000997385 11.9375 1.10526e-05C12.4844 0.000474471 13.0088 0.217939 13.3955 0.604664C13.7822 0.991388 13.9997 1.51577 14.0001 2.06268C14.0011 2.41022 13.9331 2.7545 13.8001 3.0756C13.6671 3.39671 13.4718 3.68827 13.2255 3.93343L12.8335 4.32543C12.6141 4.54327 12.3178 4.66588 12.0086 4.66668H11.0835V5.25001C11.0835 5.55943 10.9606 5.85618 10.7418 6.07497C10.523 6.29376 10.2262 6.41668 9.91682 6.41668H9.33348V7.34184C9.3339 7.49511 9.3039 7.64693 9.24522 7.78852C9.18654 7.9301 9.10036 8.05864 8.99165 8.16668L8.61248 8.54584C8.80671 9.28907 8.79724 10.0709 8.58507 10.8092C8.34632 11.6503 7.86191 12.4011 7.1939 12.9653C6.52588 13.5295 5.70466 13.8815 4.8354 13.9761C4.68346 13.9919 4.53082 13.9999 4.37807 14ZM4.37807 6.41668C3.78082 6.4161 3.19527 6.58224 2.68733 6.8964C2.17938 7.21056 1.76921 7.66027 1.50299 8.1949C1.23677 8.72953 1.12507 9.32786 1.18045 9.92253C1.23584 10.5172 1.45611 11.0846 1.81649 11.5609C2.17686 12.0372 2.66302 12.4034 3.22024 12.6183C3.77746 12.8333 4.38363 12.8884 4.97049 12.7776C5.55736 12.6667 6.10163 12.3943 6.54204 11.9908C6.98245 11.5874 7.30152 11.0691 7.46332 10.4942C7.64531 9.86216 7.62492 9.18902 7.40498 8.56918C7.36909 8.46566 7.36308 8.35413 7.38763 8.24735C7.41218 8.14057 7.46631 8.04287 7.54382 7.96543L8.16682 7.34184V6.41668C8.16682 6.10726 8.28973 5.81051 8.50852 5.59172C8.72732 5.37293 9.02406 5.25001 9.33348 5.25001H9.91682V4.66668C9.91682 4.35726 10.0397 4.06051 10.2585 3.84172C10.4773 3.62293 10.7741 3.50001 11.0835 3.50001H12.0086L12.4006 3.10801C12.5383 2.97102 12.6474 2.8081 12.7217 2.62867C12.796 2.44925 12.834 2.25688 12.8335 2.06268C12.8333 1.82519 12.739 1.59747 12.5711 1.42949C12.4032 1.2615 12.1756 1.16699 11.9381 1.16668C11.7437 1.1662 11.5512 1.20426 11.3717 1.27865C11.1922 1.35305 11.0292 1.4623 10.8921 1.60009L6.0324 6.45926C5.95484 6.53678 5.85701 6.59086 5.75012 6.61531C5.64323 6.63977 5.53161 6.6336 5.42807 6.59751C5.08977 6.4784 4.7338 6.41727 4.37515 6.41668H4.37807ZM2.91682 10.5C2.91682 10.6154 2.95103 10.7282 3.01513 10.8241C3.07922 10.92 3.17033 10.9948 3.27692 11.0389C3.38351 11.0831 3.5008 11.0946 3.61395 11.0721C3.72711 11.0496 3.83105 10.9941 3.91263 10.9125C3.99421 10.8309 4.04977 10.727 4.07227 10.6138C4.09478 10.5007 4.08323 10.3834 4.03908 10.2768C3.99493 10.1702 3.92016 10.0791 3.82423 10.015C3.7283 9.95089 3.61552 9.91668 3.50015 9.91668C3.34544 9.91668 3.19707 9.97814 3.08767 10.0875C2.97827 10.1969 2.91682 10.3453 2.91682 10.5Z" fill="#4B5263"/>
</svg>
