<svg width="14" height="14" viewBox="0 0 14 14" fill="none" xmlns="http://www.w3.org/2000/svg">
<path d="M7.00003 7C7.46152 7 7.91265 6.86315 8.29636 6.60676C8.68008 6.35037 8.97915 5.98596 9.15575 5.5596C9.33236 5.13323 9.37856 4.66408 9.28853 4.21146C9.1985 3.75883 8.97627 3.34307 8.64995 3.01675C8.32363 2.69043 7.90787 2.4682 7.45524 2.37817C7.00262 2.28814 6.53347 2.33434 6.10711 2.51095C5.68074 2.68755 5.31633 2.98662 5.05994 3.37034C4.80355 3.75405 4.6667 4.20518 4.6667 4.66667C4.6667 5.28551 4.91253 5.879 5.35012 6.31658C5.7877 6.75417 6.3812 7 7.00003 7ZM7.00003 3.5C7.23078 3.5 7.45634 3.56842 7.6482 3.69662C7.84006 3.82481 7.98959 4.00702 8.07789 4.2202C8.1662 4.43338 8.1893 4.66796 8.14428 4.89427C8.09927 5.12058 7.98815 5.32846 7.82499 5.49162C7.66183 5.65479 7.45395 5.7659 7.22764 5.81092C7.00133 5.85593 6.76675 5.83283 6.55357 5.74453C6.34039 5.65622 6.15818 5.50669 6.02999 5.31483C5.90179 5.12297 5.83337 4.89741 5.83337 4.66667C5.83337 4.35725 5.95628 4.0605 6.17508 3.84171C6.39387 3.62292 6.69061 3.5 7.00003 3.5ZM12.0517 5.34158L11.6323 5.20217C11.7078 4.54879 11.6443 3.88684 11.446 3.25972C11.2477 2.6326 10.9191 2.05448 10.4817 1.56327C10.0443 1.07206 9.50797 0.67886 8.90796 0.40945C8.30794 0.140039 7.65776 0.000506031 7.00003 0C6.33373 0.000257232 5.67521 0.143322 5.06886 0.419554C4.46251 0.695786 3.9224 1.09877 3.48494 1.60135C3.04747 2.10394 2.72281 2.69444 2.53281 3.33309C2.34282 3.97174 2.29192 4.64369 2.38353 5.30367C1.8253 5.40775 1.30911 5.67112 0.897199 6.062C0.612051 6.3331 0.385365 6.65966 0.231078 7.0216C0.0767917 7.38354 -0.0018348 7.77322 3.24958e-05 8.16667V10.5438C0.00125843 11.1745 0.206411 11.788 0.584877 12.2926C0.963343 12.7972 1.49483 13.166 2.10003 13.3438L3.7742 13.8688C4.0554 13.9563 4.34828 14.0005 4.64278 14C4.90994 13.9997 5.17583 13.9632 5.4332 13.8915L8.80487 12.894C9.10524 12.812 9.42208 12.812 9.72245 12.894L11.1149 13.3607C11.458 13.4442 11.8157 13.4487 12.1609 13.3739C12.5061 13.2991 12.8298 13.1469 13.1076 12.9288C13.3854 12.7107 13.61 12.4324 13.7646 12.1149C13.9192 11.7973 13.9997 11.4488 14 11.0956V8.092C13.9987 7.48849 13.8108 6.90016 13.462 6.40765C13.1131 5.91514 12.6206 5.54257 12.0517 5.341V5.34158ZM4.52553 2.1945C4.85002 1.8687 5.23564 1.61019 5.66028 1.43379C6.08492 1.2574 6.54021 1.1666 7.00003 1.1666C7.45985 1.1666 7.91515 1.2574 8.33978 1.43379C8.76442 1.61019 9.15005 1.8687 9.47453 2.1945C10.1291 2.85317 10.4971 3.74373 10.4983 4.67235C10.4995 5.60097 10.1338 6.49248 9.48095 7.15283L7.40837 9.16825C7.30019 9.27431 7.15474 9.33372 7.00324 9.33372C6.85175 9.33372 6.70629 9.27431 6.59812 9.16825L4.52553 7.16158C3.86956 6.50148 3.50138 5.60866 3.50138 4.67804C3.50138 3.74743 3.86956 2.85461 4.52553 2.1945ZM12.8334 11.0956C12.8337 11.2723 12.7938 11.4467 12.7165 11.6056C12.6393 11.7645 12.5268 11.9037 12.3877 12.0126C12.2562 12.1183 12.1031 12.1937 11.9391 12.2336C11.7752 12.2734 11.6045 12.2766 11.4392 12.243L10.0713 11.7833C9.55387 11.6347 9.0055 11.6315 8.48637 11.774L5.11237 12.7703C4.78819 12.8598 4.44512 12.8539 4.1242 12.7534L2.43603 12.2284C2.07066 12.1228 1.74943 11.9014 1.52055 11.5977C1.29167 11.2939 1.16751 10.9241 1.1667 10.5438V8.16667C1.16539 7.93087 1.21232 7.6973 1.30461 7.48032C1.3969 7.26333 1.5326 7.06752 1.70337 6.90492C1.97068 6.65015 2.31121 6.48571 2.67695 6.43475C2.91209 7.01761 3.26225 7.54711 3.70653 7.99167L5.78728 10.0059C6.1125 10.3244 6.54954 10.5027 7.0047 10.5027C7.45986 10.5027 7.8969 10.3244 8.22212 10.0059L10.3005 7.98583C10.7659 7.5186 11.1264 6.95764 11.3581 6.34025L11.6714 6.44408C12.0111 6.56581 12.305 6.78939 12.5129 7.08431C12.7209 7.37923 12.8328 7.73113 12.8334 8.092V11.0956Z" fill="#4B5263"/>
</svg>
