<svg width="16" height="16" viewBox="0 0 16 16" fill="none" xmlns="http://www.w3.org/2000/svg">
<path d="M7.99906 8C8.52648 8 9.04205 7.8436 9.48058 7.55059C9.91911 7.25757 10.2609 6.84109 10.4627 6.35382C10.6646 5.86655 10.7174 5.33038 10.6145 4.81309C10.5116 4.29581 10.2576 3.82066 9.88468 3.44772C9.51174 3.07478 9.03658 2.8208 8.5193 2.71791C8.00202 2.61501 7.46584 2.66782 6.97857 2.86965C6.4913 3.07149 6.07483 3.41328 5.78181 3.85181C5.48879 4.29034 5.33239 4.80592 5.33239 5.33333C5.33239 6.04058 5.61335 6.71885 6.11344 7.21895C6.61354 7.71905 7.29182 8 7.99906 8ZM7.99906 4C8.26277 4 8.52056 4.0782 8.73982 4.22471C8.95909 4.37122 9.12998 4.57945 9.2309 4.82309C9.33182 5.06672 9.35822 5.33481 9.30678 5.59345C9.25533 5.8521 9.12834 6.08967 8.94187 6.27614C8.7554 6.46261 8.51782 6.5896 8.25918 6.64105C8.00054 6.69249 7.73245 6.66609 7.48882 6.56517C7.24518 6.46426 7.03694 6.29336 6.89044 6.07409C6.74393 5.85483 6.66573 5.59704 6.66573 5.33333C6.66573 4.97971 6.8062 4.64057 7.05625 4.39052C7.3063 4.14048 7.64544 4 7.99906 4ZM13.7724 6.10467L13.2931 5.94533C13.3793 5.19862 13.3068 4.4421 13.0801 3.72539C12.8535 3.00868 12.4779 2.34798 11.9781 1.78659C11.4782 1.22521 10.8653 0.77584 10.1795 0.467942C9.49382 0.160045 8.75074 0.000578321 7.99906 0C7.23757 0.00029398 6.48498 0.163796 5.79201 0.47949C5.09903 0.795184 4.48177 1.25574 3.98181 1.83012C3.48185 2.4045 3.1108 3.07936 2.89367 3.80925C2.67653 4.53913 2.61836 5.30707 2.72306 6.06133C2.08508 6.18029 1.49514 6.48128 1.02439 6.928C0.69851 7.23783 0.43944 7.61104 0.263113 8.02469C0.0867854 8.43834 -0.00307348 8.88368 -0.000939424 9.33333V12.05C0.000461639 12.7709 0.234922 13.472 0.667454 14.0487C1.09999 14.6254 1.7074 15.0468 2.39906 15.25L4.31239 15.85C4.63377 15.95 4.96848 16.0006 5.30506 16C5.61039 15.9996 5.91426 15.9579 6.20839 15.876L10.0617 14.736C10.405 14.6423 10.7671 14.6423 11.1104 14.736L12.7017 15.2693C13.0939 15.3648 13.5027 15.37 13.8972 15.2845C14.2917 15.199 14.6616 15.0251 14.9791 14.7758C15.2966 14.5266 15.5534 14.2085 15.73 13.8455C15.9067 13.4826 15.9987 13.0843 15.9991 12.6807V9.248C15.9975 8.55827 15.7828 7.88589 15.3841 7.32303C14.9855 6.76017 14.4225 6.33437 13.7724 6.104V6.10467ZM5.17106 2.508C5.5419 2.13566 5.98261 1.84022 6.46792 1.63862C6.95322 1.43703 7.47355 1.33325 7.99906 1.33325C8.52457 1.33325 9.0449 1.43703 9.53021 1.63862C10.0155 1.84022 10.4562 2.13566 10.8271 2.508C11.5752 3.26076 11.9957 4.27854 11.997 5.33982C11.9984 6.4011 11.5806 7.41997 10.8344 8.17467L8.46573 10.478C8.3421 10.5992 8.17587 10.6671 8.00273 10.6671C7.82959 10.6671 7.66336 10.5992 7.53973 10.478L5.17106 8.18467C4.42137 7.43026 4.0006 6.40989 4.0006 5.34633C4.0006 4.28277 4.42137 3.26241 5.17106 2.508V2.508ZM14.6657 12.6807C14.6661 12.8826 14.6205 13.0819 14.5322 13.2635C14.4439 13.4452 14.3154 13.6042 14.1564 13.7287C14.0061 13.8495 13.8311 13.9357 13.6438 13.9812C13.4564 14.0267 13.2613 14.0304 13.0724 13.992L11.5091 13.4667C10.9177 13.2968 10.291 13.2931 9.69773 13.456L5.84173 14.5947C5.47124 14.6969 5.07916 14.6902 4.71239 14.5753L2.78306 13.9753C2.3655 13.8546 1.99837 13.6016 1.73679 13.2545C1.47522 12.9073 1.33332 12.4847 1.33239 12.05V9.33333C1.3309 9.06386 1.38453 8.79692 1.49001 8.54894C1.59548 8.30095 1.75057 8.07717 1.94573 7.89133C2.25123 7.60018 2.64041 7.41223 3.05839 7.354C3.32713 8.02012 3.72731 8.62527 4.23506 9.13333L6.61306 11.4353C6.98473 11.7993 7.48421 12.0031 8.00439 12.0031C8.52458 12.0031 9.02405 11.7993 9.39573 11.4353L11.7711 9.12667C12.3029 8.59269 12.7149 7.95159 12.9797 7.246L13.3377 7.36467C13.726 7.50379 14.0618 7.7593 14.2995 8.09636C14.5372 8.43341 14.6651 8.83558 14.6657 9.248V12.6807Z" fill="#4267B2"/>
</svg>
