<svg width="17" height="16" viewBox="0 0 17 16" fill="none" xmlns="http://www.w3.org/2000/svg">
<path d="M9.83337 4.66675C9.83337 4.93046 9.75518 5.18825 9.60867 5.40751C9.46216 5.62678 9.25392 5.79767 9.01029 5.89859C8.76665 5.99951 8.49856 6.02591 8.23992 5.97447C7.98128 5.92302 7.7437 5.79603 7.55723 5.60956C7.37076 5.42309 7.24377 5.18551 7.19233 4.92687C7.14088 4.66823 7.16728 4.40014 7.2682 4.15651C7.36912 3.91287 7.54002 3.70463 7.75928 3.55813C7.97855 3.41162 8.23633 3.33342 8.50004 3.33342C8.85366 3.33342 9.1928 3.47389 9.44285 3.72394C9.6929 3.97399 9.83337 4.31313 9.83337 4.66675ZM11.8054 8.12275L9.76671 10.1434C9.6013 10.3102 9.4045 10.4426 9.18767 10.5329C8.97084 10.6232 8.73827 10.6698 8.50337 10.6698C8.26848 10.6698 8.03591 10.6232 7.81908 10.5329C7.60225 10.4426 7.40545 10.3102 7.24004 10.1434L5.20271 8.13342C4.32788 7.23153 3.83796 6.02485 3.83646 4.76837C3.83497 3.51189 4.32203 2.30405 5.19471 1.40008C5.62362 0.956944 6.13726 0.604573 6.70508 0.363926C7.27291 0.123278 7.88333 -0.000732422 8.50004 -0.000732422C9.11676 -0.000732422 9.72717 0.123278 10.295 0.363926C10.8628 0.604573 11.3765 0.956944 11.8054 1.40008C12.6767 2.30211 13.1638 3.50726 13.1638 4.76142C13.1638 6.01558 12.6767 7.22073 11.8054 8.12275ZM11.1667 4.66675C11.1667 4.13933 11.0103 3.62376 10.7173 3.18523C10.4243 2.7467 10.0078 2.40491 9.52053 2.20307C9.03326 2.00124 8.49708 1.94843 7.9798 2.05132C7.46252 2.15422 6.98736 2.40819 6.61442 2.78113C6.24148 3.15407 5.98751 3.62923 5.88461 4.14651C5.78172 4.66379 5.83453 5.19997 6.03636 5.68724C6.2382 6.17451 6.57999 6.59099 7.01852 6.884C7.45705 7.17702 7.97262 7.33342 8.50004 7.33342C9.20728 7.33342 9.88556 7.05247 10.3857 6.55237C10.8858 6.05227 11.1667 5.374 11.1667 4.66675ZM14.3354 6.13342C14.0921 7.23525 13.5463 8.24739 12.7594 9.05609L10.7074 11.0914C10.4187 11.3808 10.0758 11.6105 9.69832 11.7673C9.32083 11.9242 8.91614 12.0051 8.50737 12.0054C8.09883 12.0056 7.69426 11.9252 7.31677 11.769C6.93929 11.6127 6.59629 11.3836 6.30737 11.0948L4.26537 9.07942C3.4888 8.28221 2.94378 7.28872 2.68871 6.20542C2.2557 6.36413 1.85979 6.60985 1.52537 6.92742C1.19941 7.23733 0.94029 7.61065 0.76396 8.02441C0.58763 8.43818 0.497815 8.88365 0.50004 9.33342V12.0501C0.501441 12.771 0.735902 13.4721 1.16843 14.0488C1.60097 14.6255 2.20838 15.0469 2.90004 15.2501L4.81337 15.8501C5.13475 15.9501 5.46946 16.0007 5.80604 16.0001C6.11137 15.9997 6.41524 15.958 6.70937 15.8761L10.5627 14.7361C10.9059 14.642 11.2681 14.642 11.6114 14.7361L13.2027 15.2694C13.5949 15.3649 14.0037 15.3701 14.3982 15.2846C14.7926 15.1991 15.1626 15.0252 15.4801 14.7759C15.7976 14.5266 16.0543 14.2086 16.231 13.8456C16.4077 13.4827 16.4997 13.0844 16.5 12.6808V9.24809C16.4978 8.57063 16.2895 7.90989 15.9029 7.35358C15.5162 6.79728 14.9695 6.37172 14.3354 6.13342Z" fill="white"/>
</svg>
