<svg width="16" height="16" viewBox="0 0 16 16" fill="none" xmlns="http://www.w3.org/2000/svg">
<g clip-path="url(#clip0_2184_5844)">
<path d="M12.6 -0.000276502H3.4C2.50735 -0.00827568 1.648 0.338221 1.01056 0.963163C0.373121 1.5881 0.00967683 2.44043 0 3.33306L0 5.33306C0 5.50987 0.0702379 5.67944 0.195262 5.80446C0.320286 5.92949 0.489856 5.99972 0.666667 5.99972C0.843478 5.99972 1.01305 5.92949 1.13807 5.80446C1.2631 5.67944 1.33333 5.50987 1.33333 5.33306V3.33306C1.3428 2.79399 1.56571 2.28068 1.95314 1.90575C2.34058 1.53081 2.86091 1.32485 3.4 1.33306H12.6C13.1391 1.32485 13.6594 1.53081 14.0469 1.90575C14.4343 2.28068 14.6572 2.79399 14.6667 3.33306V12.6664C14.6572 13.2055 14.4343 13.7188 14.0469 14.0937C13.6594 14.4686 13.1391 14.6746 12.6 14.6664H3.4C2.86091 14.6746 2.34058 14.4686 1.95314 14.0937C1.56571 13.7188 1.3428 13.2055 1.33333 12.6664V10.6664C1.33333 10.4896 1.2631 10.32 1.13807 10.195C1.01305 10.07 0.843478 9.99972 0.666667 9.99972C0.489856 9.99972 0.320286 10.07 0.195262 10.195C0.0702379 10.32 0 10.4896 0 10.6664L0 12.6664C0.00967683 13.559 0.373121 14.4113 1.01056 15.0363C1.648 15.6612 2.50735 16.0077 3.4 15.9997H12.6C13.4926 16.0077 14.352 15.6612 14.9894 15.0363C15.6269 14.4113 15.9903 13.559 16 12.6664V3.33306C15.9903 2.44043 15.6269 1.5881 14.9894 0.963163C14.352 0.338221 13.4926 -0.00827568 12.6 -0.000276502Z" fill="#4267B2"/>
<path d="M2 7.99943C2 8.17624 2.07024 8.34581 2.19526 8.47084C2.32029 8.59586 2.48986 8.6661 2.66667 8.6661L11.4587 8.6461L8.57667 11.5281C8.51299 11.5896 8.46221 11.6632 8.42727 11.7445C8.39233 11.8258 8.37394 11.9133 8.37317 12.0018C8.3724 12.0904 8.38927 12.1781 8.42279 12.2601C8.45631 12.342 8.50581 12.4164 8.5684 12.479C8.631 12.5416 8.70543 12.5911 8.78736 12.6246C8.86929 12.6582 8.95708 12.675 9.0456 12.6743C9.13412 12.6735 9.2216 12.6551 9.30294 12.6202C9.38427 12.5852 9.45784 12.5344 9.51933 12.4708L12.5767 9.41343C12.9516 9.03838 13.1622 8.52976 13.1622 7.99943C13.1622 7.4691 12.9516 6.96049 12.5767 6.58543L9.52067 3.5281C9.39493 3.40666 9.22653 3.33946 9.05173 3.34098C8.87693 3.3425 8.70973 3.41261 8.58612 3.53622C8.46252 3.65983 8.3924 3.82703 8.39088 4.00183C8.38937 4.17663 8.45656 4.34503 8.578 4.47077L11.4193 7.31277L2.66667 7.33277C2.48986 7.33277 2.32029 7.403 2.19526 7.52803C2.07024 7.65305 2 7.82262 2 7.99943Z" fill="#4267B2"/>
</g>
<defs>
<clipPath id="clip0_2184_5844">
<rect width="16" height="16" fill="white"/>
</clipPath>
</defs>
</svg>
