<svg width="52" height="52" viewBox="0 0 52 52" fill="none" xmlns="http://www.w3.org/2000/svg">
<ellipse cx="25.9998" cy="45.0333" rx="9.33333" ry="2.33333" fill="black" fill-opacity="0.42"/>
<path d="M26.0002 4.33334C17.6152 4.33334 10.8335 11.115 10.8335 19.5C10.8335 28.1849 19.6749 40.0275 23.8567 45.143C24.9814 46.519 27.0189 46.519 28.1437 45.143C32.3255 40.0275 41.1668 28.1849 41.1668 19.5C41.1668 11.115 34.3852 4.33334 26.0002 4.33334ZM26.0002 24.9167C23.0102 24.9167 20.5835 22.49 20.5835 19.5C20.5835 16.51 23.0102 14.0833 26.0002 14.0833C28.9902 14.0833 31.4168 16.51 31.4168 19.5C31.4168 22.49 28.9902 24.9167 26.0002 24.9167Z" fill="#CD261F"/>
</svg>
