<svg width="42" height="42" viewBox="0 0 42 42" fill="none" xmlns="http://www.w3.org/2000/svg">
<ellipse cx="20.9999" cy="37.1535" rx="9.69231" ry="2.42308" fill="black" fill-opacity="0.42"/>
<path d="M21 19.25C18.6725 19.25 14 20.4225 14 22.75V23.03C15.6975 24.99 18.2 26.25 21 26.25C23.8 26.25 26.3025 24.99 28 23.03V22.75C28 20.4225 23.3275 19.25 21 19.25ZM21 17.5C22.925 17.5 24.5 15.925 24.5 14C24.5 12.075 22.925 10.5 21 10.5C19.075 10.5 17.5 12.075 17.5 14C17.5 15.925 19.075 17.5 21 17.5ZM21 3.5C28.35 3.5 35 9.135 35 17.85C35 23.415 30.7125 29.96 22.155 37.5025C21.49 38.08 20.4925 38.08 19.8275 37.5025C11.2875 29.96 7 23.415 7 17.85C7 9.135 13.65 3.5 21 3.5Z" fill="#4267B2"/>
</svg>
