<svg width="14" height="15" viewBox="0 0 14 15" fill="none" xmlns="http://www.w3.org/2000/svg">
<path d="M0.936946 11C1.41945 11.8374 2.4895 12.1251 3.32693 11.6426C3.3275 11.6423 3.32805 11.642 3.32862 11.6416L3.5882 11.4917C4.0782 11.911 4.64142 12.2361 5.24952 12.4507V12.75C5.24952 13.7165 6.03303 14.5 6.99952 14.5C7.96601 14.5 8.74952 13.7165 8.74952 12.75V12.4508C9.3577 12.2357 9.92095 11.9102 10.4108 11.4906L10.6716 11.6411C11.5092 12.1243 12.58 11.837 13.0633 10.9994C13.5465 10.1618 13.2592 9.09097 12.4216 8.60772L12.1626 8.4584C12.2792 7.824 12.2792 7.17365 12.1626 6.53922L12.4216 6.3899C13.2592 5.90665 13.5465 4.83587 13.0633 3.99822C12.58 3.1606 11.5092 2.8733 10.6716 3.35655L10.412 3.50647C9.92153 3.08776 9.35792 2.76324 8.74952 2.54925V2.25C8.74952 1.28351 7.96601 0.5 6.99952 0.5C6.03303 0.5 5.24952 1.28351 5.24952 2.25V2.54925C4.64134 2.76425 4.07809 3.08975 3.5882 3.50943L3.32745 3.35835C2.4898 2.87508 1.41902 3.16238 0.93577 4C0.452524 4.83762 0.739797 5.90843 1.57745 6.39168L1.83645 6.541C1.71985 7.1754 1.71985 7.82575 1.83645 8.46018L1.57745 8.6095C0.742122 9.09403 0.455778 10.1627 0.936946 11ZM6.99952 5.16668C8.28818 5.16668 9.33284 6.21134 9.33284 7.5C9.33284 8.78866 8.28818 9.83332 6.99952 9.83332C5.71086 9.83332 4.6662 8.78866 4.6662 7.5C4.6662 6.21134 5.71086 5.16668 6.99952 5.16668Z" fill="#4267B2"/>
</svg>
