<svg width="14" height="15" viewBox="0 0 14 15" fill="none" xmlns="http://www.w3.org/2000/svg">
<path d="M12.4207 8.60833L12.1617 8.459C12.2783 7.82459 12.2783 7.17424 12.1617 6.53983L12.4207 6.3905C12.6199 6.27559 12.7945 6.12258 12.9345 5.9402C13.0746 5.75782 13.1773 5.54965 13.2369 5.32756C13.2965 5.10547 13.3117 4.87383 13.2818 4.64584C13.2519 4.41786 13.1773 4.198 13.0624 3.99883C12.9475 3.79966 12.7945 3.62507 12.6121 3.48504C12.4297 3.345 12.2215 3.24225 11.9995 3.18267C11.7774 3.12309 11.5457 3.10783 11.3177 3.13777C11.0898 3.16771 10.8699 3.24226 10.6707 3.35717L10.4111 3.50708C9.92088 3.0882 9.35745 2.76348 8.74923 2.54925V2.25C8.74923 1.78587 8.56486 1.34075 8.23667 1.01256C7.90848 0.684374 7.46336 0.5 6.99923 0.5C6.5351 0.5 6.08998 0.684374 5.76179 1.01256C5.43361 1.34075 5.24923 1.78587 5.24923 2.25V2.54925C4.64104 2.76425 4.07781 3.08977 3.5879 3.50942L3.32715 3.35833C2.9249 3.12627 2.44695 3.0635 1.99842 3.18384C1.5499 3.30417 1.16755 3.59775 0.935482 4C0.703417 4.40224 0.640649 4.8802 0.760985 5.32873C0.88132 5.77725 1.1749 6.1596 1.57715 6.39167L1.83615 6.541C1.71955 7.17541 1.71955 7.82576 1.83615 8.46017L1.57715 8.6095C1.1749 8.84156 0.88132 9.22391 0.760985 9.67244C0.640649 10.121 0.703417 10.5989 0.935482 11.0012C1.16755 11.4034 1.5499 11.697 1.99842 11.8173C2.44695 11.9377 2.9249 11.8749 3.32715 11.6428L3.58673 11.4929C4.07718 11.9119 4.6408 12.2366 5.24923 12.4507V12.75C5.24923 13.2141 5.43361 13.6592 5.76179 13.9874C6.08998 14.3156 6.5351 14.5 6.99923 14.5C7.46336 14.5 7.90848 14.3156 8.23667 13.9874C8.56486 13.6592 8.74923 13.2141 8.74923 12.75V12.4507C9.35742 12.2358 9.92065 11.9102 10.4106 11.4906L10.6713 11.6411C11.0736 11.8731 11.5515 11.9359 12 11.8156C12.4486 11.6952 12.8309 11.4017 13.063 10.9994C13.295 10.5972 13.3578 10.1192 13.2375 9.67069C13.1171 9.22217 12.8236 8.83981 12.4213 8.60775L12.4207 8.60833ZM10.9344 6.40567C11.1319 7.12145 11.1319 7.87738 10.9344 8.59317C10.8999 8.71775 10.9078 8.85026 10.9568 8.96989C11.0058 9.08952 11.0931 9.18948 11.2051 9.25408L11.8374 9.61925C11.9715 9.6966 12.0693 9.82404 12.1094 9.97353C12.1495 10.123 12.1285 10.2823 12.0512 10.4164C11.9738 10.5504 11.8464 10.6483 11.6969 10.6884C11.5474 10.7285 11.3881 10.7075 11.2541 10.6302L10.6206 10.2638C10.5085 10.1989 10.378 10.1732 10.2497 10.1906C10.1214 10.208 10.0025 10.2676 9.91181 10.3601C9.3926 10.8901 8.73848 11.2683 8.02006 11.4538C7.89467 11.4861 7.78356 11.5591 7.70424 11.6615C7.62493 11.7638 7.58192 11.8896 7.58198 12.0191V12.75C7.58198 12.9047 7.52052 13.0531 7.41113 13.1625C7.30173 13.2719 7.15336 13.3333 6.99865 13.3333C6.84394 13.3333 6.69557 13.2719 6.58617 13.1625C6.47677 13.0531 6.41531 12.9047 6.41531 12.75V12.0197C6.41538 11.8902 6.37237 11.7644 6.29305 11.662C6.21374 11.5597 6.10263 11.4867 5.97723 11.4544C5.25877 11.2681 4.60484 10.8891 4.08606 10.3583C3.99537 10.2659 3.8765 10.2063 3.74817 10.1888C3.61985 10.1714 3.48938 10.1972 3.37731 10.2621L2.74498 10.6278C2.67862 10.6667 2.60521 10.6921 2.52899 10.7026C2.45277 10.713 2.37524 10.7082 2.30086 10.6886C2.22649 10.6689 2.15674 10.6347 2.09563 10.588C2.03452 10.5413 1.98325 10.4829 1.94479 10.4163C1.90632 10.3497 1.88141 10.2761 1.8715 10.1998C1.86158 10.1235 1.86685 10.046 1.88701 9.97176C1.90717 9.89752 1.94181 9.828 1.98894 9.7672C2.03608 9.7064 2.09477 9.65552 2.16165 9.6175L2.79398 9.25233C2.90595 9.18773 2.99329 9.08777 3.04228 8.96814C3.09127 8.84851 3.09914 8.716 3.06465 8.59142C2.86711 7.87563 2.86711 7.1197 3.06465 6.40392C3.09852 6.2796 3.09028 6.14756 3.04121 6.02842C2.99214 5.90928 2.905 5.80974 2.7934 5.74533L2.16106 5.38017C2.02701 5.30281 1.92917 5.17537 1.88908 5.02588C1.84899 4.87639 1.86992 4.7171 1.94727 4.58304C2.02463 4.44899 2.15207 4.35115 2.30156 4.31106C2.45105 4.27096 2.61034 4.2919 2.7444 4.36925L3.3779 4.73558C3.48965 4.80063 3.61985 4.82671 3.74804 4.80971C3.87622 4.79271 3.99513 4.7336 4.08606 4.64167C4.60528 4.11162 5.2594 3.73343 5.97781 3.54792C6.1036 3.51558 6.215 3.44219 6.29435 3.33938C6.37371 3.23656 6.41648 3.11021 6.4159 2.98033V2.25C6.4159 2.09529 6.47736 1.94692 6.58675 1.83752C6.69615 1.72812 6.84452 1.66667 6.99923 1.66667C7.15394 1.66667 7.30231 1.72812 7.41171 1.83752C7.52111 1.94692 7.58256 2.09529 7.58256 2.25V2.98033C7.5825 3.10981 7.62551 3.23563 7.70483 3.33796C7.78414 3.4403 7.89525 3.51334 8.02065 3.54558C8.73932 3.73176 9.39346 4.11077 9.9124 4.64167C10.0031 4.73411 10.122 4.79374 10.2503 4.81116C10.3786 4.82859 10.5091 4.80282 10.6211 4.73792L11.2535 4.37217C11.3198 4.33326 11.3933 4.30786 11.4695 4.29744C11.5457 4.28702 11.6232 4.29178 11.6976 4.31144C11.772 4.33111 11.8417 4.36529 11.9028 4.41202C11.9639 4.45875 12.0152 4.5171 12.0537 4.58373C12.0921 4.65035 12.1171 4.72392 12.127 4.80021C12.1369 4.8765 12.1316 4.95399 12.1115 5.02824C12.0913 5.10248 12.0567 5.172 12.0095 5.2328C11.9624 5.2936 11.9037 5.34448 11.8368 5.3825L11.2045 5.74767C11.0931 5.81224 11.0062 5.91186 10.9573 6.03099C10.9085 6.15012 10.9004 6.28206 10.9344 6.40625V6.40567Z" fill="#757C8A"/>
</svg>
