<svg width="12" height="12" viewBox="0 0 12 12" fill="none" xmlns="http://www.w3.org/2000/svg">
<path d="M0.663108 6.2001L2.44311 7.5001L1.76711 9.5936C1.65786 9.91829 1.65648 10.2696 1.76316 10.5951C1.86985 10.9207 2.07888 11.203 2.35911 11.4001C2.63453 11.6035 2.9683 11.7124 3.31069 11.7107C3.65307 11.709 3.98573 11.5967 4.25911 11.3906L5.99961 10.1096L7.74061 11.3891C8.01554 11.5913 8.34751 11.7012 8.68879 11.7028C9.03008 11.7045 9.36311 11.5979 9.63999 11.3984C9.91688 11.1988 10.1234 10.9166 10.2298 10.5923C10.3361 10.2681 10.337 9.91838 10.2321 9.5936L9.55611 7.5001L11.3361 6.2001C11.6107 5.99935 11.8148 5.71697 11.9193 5.39329C12.0238 5.06961 12.0233 4.72119 11.9179 4.39779C11.8126 4.07439 11.6077 3.79256 11.3326 3.59255C11.0575 3.39254 10.7262 3.28458 10.3861 3.2841H8.19961L7.53611 1.2161C7.43177 0.890578 7.22674 0.606606 6.95059 0.405132C6.67444 0.203658 6.34144 0.0950928 5.99961 0.0950928C5.65777 0.0950928 5.32477 0.203658 5.04862 0.405132C4.77247 0.606606 4.56745 0.890578 4.46311 1.2161L3.79961 3.2841H1.61511C1.27498 3.28458 0.943704 3.39254 0.668598 3.59255C0.393492 3.79256 0.188629 4.07439 0.0832689 4.39779C-0.0220908 4.72119 -0.0225571 5.06961 0.0819365 5.39329C0.18643 5.71697 0.390539 5.99935 0.665108 6.2001H0.663108Z" fill="#FFB100"/>
</svg>
