<svg width="14" height="15" viewBox="0 0 14 15" fill="none" xmlns="http://www.w3.org/2000/svg">
<path d="M14 6.33338C14 6.2908 13.9953 6.24835 13.986 6.2068L13.2277 2.7838C13.0868 2.1341 12.7268 1.5526 12.2081 1.1368C11.6894 0.721005 11.0435 0.496187 10.3787 0.500049H3.62133C2.95695 0.496724 2.31159 0.721787 1.79336 1.13754C1.27512 1.5533 0.915482 2.1345 0.774667 2.7838L0.0140008 6.2068C0.00467219 6.24835 -2.31349e-05 6.2908 7.98815e-07 6.33338V6.91672C-0.000469839 7.48464 0.207038 8.03309 0.583334 8.45847V11.5834C0.58426 12.3566 0.891849 13.098 1.43863 13.6448C1.98541 14.1915 2.72674 14.4991 3.5 14.5H10.5C11.2733 14.4991 12.0146 14.1915 12.5614 13.6448C13.1082 13.098 13.4157 12.3566 13.4167 11.5834V8.45847C13.793 8.03309 14.0005 7.48464 14 6.91672V6.33338ZM1.16667 6.39697L1.91333 3.03697C1.99794 2.64745 2.21376 2.2988 2.52467 2.04937C2.83559 1.79994 3.22274 1.66485 3.62133 1.66672H4.08333V3.41672C4.08333 3.57143 4.14479 3.7198 4.25419 3.82919C4.36359 3.93859 4.51196 4.00005 4.66667 4.00005C4.82138 4.00005 4.96975 3.93859 5.07915 3.82919C5.18854 3.7198 5.25 3.57143 5.25 3.41672V1.66672H8.75V3.41672C8.75 3.57143 8.81146 3.7198 8.92086 3.82919C9.03025 3.93859 9.17863 4.00005 9.33334 4.00005C9.48804 4.00005 9.63642 3.93859 9.74581 3.82919C9.85521 3.7198 9.91667 3.57143 9.91667 3.41672V1.66672H10.3787C10.7773 1.66485 11.1644 1.79994 11.4753 2.04937C11.7862 2.2988 12.0021 2.64745 12.0867 3.03697L12.8333 6.39697V6.91672C12.8333 7.22613 12.7104 7.52288 12.4916 7.74167C12.2728 7.96047 11.9761 8.08338 11.6667 8.08338H11.0833C10.7739 8.08338 10.4772 7.96047 10.2584 7.74167C10.0396 7.52288 9.91667 7.22613 9.91667 6.91672C9.91667 6.76201 9.85521 6.61363 9.74581 6.50424C9.63642 6.39484 9.48804 6.33338 9.33334 6.33338C9.17863 6.33338 9.03025 6.39484 8.92086 6.50424C8.81146 6.61363 8.75 6.76201 8.75 6.91672C8.75 7.22613 8.62708 7.52288 8.40829 7.74167C8.1895 7.96047 7.89275 8.08338 7.58333 8.08338H6.41667C6.10725 8.08338 5.8105 7.96047 5.59171 7.74167C5.37292 7.52288 5.25 7.22613 5.25 6.91672C5.25 6.76201 5.18854 6.61363 5.07915 6.50424C4.96975 6.39484 4.82138 6.33338 4.66667 6.33338C4.51196 6.33338 4.36359 6.39484 4.25419 6.50424C4.14479 6.61363 4.08333 6.76201 4.08333 6.91672C4.08333 7.22613 3.96042 7.52288 3.74163 7.74167C3.52283 7.96047 3.22609 8.08338 2.91667 8.08338H2.33333C2.02392 8.08338 1.72717 7.96047 1.50838 7.74167C1.28958 7.52288 1.16667 7.22613 1.16667 6.91672V6.39697ZM10.5 13.3334H3.5C3.03587 13.3334 2.59075 13.149 2.26256 12.8208C1.93438 12.4926 1.75 12.0475 1.75 11.5834V9.17597C1.94052 9.2253 2.13654 9.25019 2.33333 9.25005H2.91667C3.24789 9.25022 3.57534 9.1797 3.87713 9.04319C4.17892 8.90668 4.44809 8.70733 4.66667 8.45847C4.88524 8.70733 5.15442 8.90668 5.45621 9.04319C5.75799 9.1797 6.08544 9.25022 6.41667 9.25005H7.58333C7.91456 9.25022 8.24201 9.1797 8.5438 9.04319C8.84558 8.90668 9.11476 8.70733 9.33334 8.45847C9.55191 8.70733 9.82109 8.90668 10.1229 9.04319C10.4247 9.1797 10.7521 9.25022 11.0833 9.25005H11.6667C11.8635 9.25019 12.0595 9.2253 12.25 9.17597V11.5834C12.25 12.0475 12.0656 12.4926 11.7374 12.8208C11.4093 13.149 10.9641 13.3334 10.5 13.3334Z" fill="#757C8A"/>
</svg>
