<svg width="14" height="15" viewBox="0 0 14 15" fill="none" xmlns="http://www.w3.org/2000/svg">
<g clip-path="url(#clip0_2426_10098)">
<path d="M9.33399 8.08301C9.06231 8.44525 8.71002 8.73926 8.30502 8.94175C7.90003 9.14425 7.45345 9.24967 7.00065 9.24967C6.54785 9.24967 6.10127 9.14425 5.69628 8.94175C5.29128 8.73926 4.939 8.44525 4.66732 8.08301C4.43867 8.39122 4.15094 8.65083 3.82092 8.84668C3.4909 9.04254 3.12518 9.17073 2.7451 9.22378C2.36502 9.27683 1.97818 9.25367 1.60714 9.15566C1.2361 9.05765 0.888287 8.88675 0.583984 8.65292V11.583C0.584911 12.3563 0.892499 13.0976 1.43928 13.6444C1.98606 14.1912 2.72739 14.4987 3.50065 14.4997H10.5007C11.2739 14.4987 12.0152 14.1912 12.562 13.6444C13.1088 13.0976 13.4164 12.3563 13.4173 11.583V8.65117C13.1131 8.88509 12.7654 9.05611 12.3944 9.15426C12.0235 9.25241 11.6367 9.27572 11.2566 9.22283C10.8765 9.16995 10.5108 9.04193 10.1807 8.84623C9.85059 8.65054 9.56277 8.39109 9.33399 8.08301Z" fill="#4267B2"/>
<path d="M12.659 2.3267C12.5461 1.80701 12.2579 1.34192 11.8429 1.00939C11.4279 0.676871 10.9111 0.497125 10.3793 0.500285H9.91732V2.25028C9.91732 2.40499 9.85586 2.55337 9.74646 2.66276C9.63707 2.77216 9.48869 2.83362 9.33399 2.83362C9.17928 2.83362 9.0309 2.77216 8.92151 2.66276C8.81211 2.55337 8.75065 2.40499 8.75065 2.25028V0.500285H5.25065V2.25028C5.25065 2.40499 5.18919 2.55337 5.0798 2.66276C4.9704 2.77216 4.82203 2.83362 4.66732 2.83362C4.51261 2.83362 4.36424 2.77216 4.25484 2.66276C4.14544 2.55337 4.08398 2.40499 4.08398 2.25028V0.500285H3.62198C3.09009 0.497153 2.57329 0.676983 2.15824 1.00962C1.74319 1.34226 1.45511 1.80748 1.34232 2.32728L0.596818 5.69195L0.583984 6.34528C0.58475 6.5751 0.630774 6.80251 0.719428 7.01454C0.808081 7.22656 0.937628 7.41905 1.10067 7.58101C1.42996 7.90811 1.87569 8.091 2.33982 8.08945C2.56963 8.08869 2.79704 8.04266 3.00907 7.95401C3.2211 7.86535 3.41359 7.73581 3.57555 7.57276C3.73751 7.40972 3.86577 7.21637 3.95301 7.00376C4.04024 6.79114 4.08475 6.56343 4.08398 6.33362C4.08398 6.17891 4.14544 6.03054 4.25484 5.92114C4.36424 5.81174 4.51261 5.75028 4.66732 5.75028C4.82203 5.75028 4.9704 5.81174 5.0798 5.92114C5.18919 6.03054 5.25065 6.17891 5.25065 6.33362C5.25065 6.79775 5.43503 7.24287 5.76321 7.57105C6.0914 7.89924 6.53652 8.08362 7.00065 8.08362C7.46478 8.08362 7.9099 7.89924 8.23809 7.57105C8.56628 7.24287 8.75065 6.79775 8.75065 6.33362C8.75065 6.17891 8.81211 6.03054 8.92151 5.92114C9.0309 5.81174 9.17928 5.75028 9.33399 5.75028C9.48869 5.75028 9.63707 5.81174 9.74646 5.92114C9.85586 6.03054 9.91732 6.17891 9.91732 6.33362C9.91732 6.79775 10.1017 7.24287 10.4299 7.57105C10.7581 7.89924 11.2032 8.08362 11.6673 8.08362C12.1314 8.08362 12.5766 7.89924 12.9048 7.57105C13.2329 7.24287 13.4173 6.79775 13.4173 6.33362V5.8127L12.659 2.3267Z" fill="#4267B2"/>
</g>
<defs>
<clipPath id="clip0_2426_10098">
<rect width="14" height="14" fill="white" transform="translate(0 0.5)"/>
</clipPath>
</defs>
</svg>
