<svg width="16" height="16" viewBox="0 0 16 16" fill="none" xmlns="http://www.w3.org/2000/svg">
<path d="M8.666 0.666724C8.666 0.489913 8.73623 0.320344 8.86126 0.19532C8.98628 0.0702955 9.15585 5.75652e-05 9.33266 5.75652e-05C11.1002 0.00199863 12.7947 0.705001 14.0446 1.95482C15.2944 3.20465 15.9974 4.89921 15.9993 6.66673C15.9993 6.84354 15.9291 7.01311 15.8041 7.13813C15.679 7.26315 15.5095 7.33339 15.3327 7.33339C15.1558 7.33339 14.9863 7.26315 14.8613 7.13813C14.7362 7.01311 14.666 6.84354 14.666 6.66673C14.6644 5.25272 14.102 3.89709 13.1021 2.89724C12.1023 1.89739 10.7467 1.33498 9.33266 1.33339C9.15585 1.33339 8.98628 1.26315 8.86126 1.13813C8.73623 1.0131 8.666 0.843535 8.666 0.666724V0.666724ZM9.33266 4.00006C10.0399 4.00006 10.7182 4.28101 11.2183 4.78111C11.7184 5.2812 11.9993 5.95948 11.9993 6.66673C11.9993 6.84354 12.0696 7.01311 12.1946 7.13813C12.3196 7.26315 12.4892 7.33339 12.666 7.33339C12.8428 7.33339 13.0124 7.26315 13.1374 7.13813C13.2624 7.01311 13.3327 6.84354 13.3327 6.66673C13.3316 5.60618 12.9098 4.58938 12.1599 3.83947C11.41 3.08955 10.3932 2.66778 9.33266 2.66672C9.15585 2.66672 8.98628 2.73696 8.86126 2.86199C8.73623 2.98701 8.666 3.15658 8.666 3.33339C8.666 3.5102 8.73623 3.67977 8.86126 3.8048C8.98628 3.92982 9.15585 4.00006 9.33266 4.00006V4.00006ZM15.3947 11.1594C15.781 11.5468 15.9979 12.0716 15.9979 12.6187C15.9979 13.1658 15.781 13.6906 15.3947 14.0781L14.788 14.7774C9.328 20.0047 -3.95866 6.72139 1.188 1.24406L1.95467 0.577391C2.34252 0.201842 2.86262 -0.00590972 3.40247 -0.000919207C3.94232 0.0040713 4.4585 0.221403 4.83933 0.604058C4.86 0.624724 6.09533 2.22939 6.09533 2.22939C6.46189 2.61448 6.66593 3.12601 6.66507 3.65766C6.6642 4.18931 6.45848 4.70017 6.09067 5.08406L5.31867 6.05473C5.7459 7.0928 6.37404 8.03622 7.167 8.83079C7.95997 9.62535 8.90212 10.2554 9.93933 10.6847L10.916 9.90806C11.2999 9.54054 11.8107 9.33506 12.3422 9.33431C12.8737 9.33357 13.385 9.53761 13.77 9.90406C13.77 9.90406 15.374 11.1387 15.3947 11.1594ZM14.4773 12.1287C14.4773 12.1287 12.882 10.9014 12.8613 10.8807C12.724 10.7445 12.5384 10.6681 12.345 10.6681C12.1516 10.6681 11.966 10.7445 11.8287 10.8807C11.8107 10.8994 10.466 11.9707 10.466 11.9707C10.3754 12.0429 10.2675 12.0901 10.1531 12.1079C10.0386 12.1257 9.92155 12.1133 9.81333 12.0721C8.46964 11.5718 7.24916 10.7886 6.23456 9.77544C5.21996 8.76234 4.43494 7.54301 3.93267 6.20006C3.88813 6.09036 3.87361 5.97078 3.8906 5.85362C3.90759 5.73645 3.95548 5.62592 4.02933 5.53339C4.02933 5.53339 5.10067 4.18806 5.11867 4.17072C5.25485 4.03338 5.33125 3.8478 5.33125 3.65439C5.33125 3.46098 5.25485 3.2754 5.11867 3.13806C5.098 3.11806 3.87067 1.52139 3.87067 1.52139C3.73127 1.3964 3.54934 1.32945 3.36217 1.33429C3.175 1.33912 2.99676 1.41537 2.864 1.54739L2.09734 2.21406C-1.66399 6.73673 9.84999 17.6121 13.8133 13.8667L14.4207 13.1667C14.563 13.0349 14.6485 12.8529 14.659 12.6592C14.6696 12.4655 14.6044 12.2753 14.4773 12.1287V12.1287Z" fill="#4267B2"/>
</svg>
