<svg width="36" height="36" viewBox="0 0 36 36" fill="none" xmlns="http://www.w3.org/2000/svg">
<g clip-path="url(#clip0_2343_12583)">
<path d="M30.9013 6.53411H26.458C26.1253 4.91647 25.2451 3.46298 23.9658 2.41861C22.6864 1.37424 21.0861 0.802866 19.4346 0.800781L16.568 0.800781C14.9165 0.802866 13.3162 1.37424 12.0368 2.41861C10.7575 3.46298 9.87731 4.91647 9.54463 6.53411H5.1013C4.72116 6.53411 4.35658 6.68513 4.08778 6.95393C3.81898 7.22273 3.66797 7.5873 3.66797 7.96745C3.66797 8.34759 3.81898 8.71217 4.08778 8.98097C4.35658 9.24977 4.72116 9.40078 5.1013 9.40078H6.53464V28.0341C6.53691 29.9341 7.2927 31.7557 8.63622 33.0992C9.97973 34.4427 11.8013 35.1985 13.7013 35.2008H22.3013C24.2013 35.1985 26.0229 34.4427 27.3664 33.0992C28.7099 31.7557 29.4657 29.9341 29.468 28.0341V18.7174V9.40078H30.9013C31.2814 9.40078 31.646 9.24977 31.9148 8.98097C32.1836 8.71217 32.3346 8.34759 32.3346 7.96745C32.3346 7.5873 32.1836 7.22273 31.9148 6.95393C31.646 6.68513 31.2814 6.53411 30.9013 6.53411ZM16.568 3.66745H19.4346C20.3237 3.66853 21.1907 3.94462 21.9166 4.45785C22.6426 4.97108 23.192 5.69632 23.4895 6.53411H12.5131C12.8106 5.69632 13.36 4.97108 14.086 4.45785C14.812 3.94462 15.6789 3.66853 16.568 3.66745ZM26.6013 28.0341C26.6013 29.1745 26.1483 30.2683 25.3419 31.0747C24.5355 31.8811 23.4417 32.3341 22.3013 32.3341H13.7013C12.5609 32.3341 11.4671 31.8811 10.6607 31.0747C9.85434 30.2683 9.4013 29.1745 9.4013 28.0341V9.40078H26.6013L26.458 13.7008L26.6013 28.0341Z" fill="#D71D1D"/>
<path d="M15.1345 26.5995C15.5146 26.5995 15.8792 26.4484 16.148 26.1796C16.4168 25.9108 16.5678 25.5463 16.5678 25.1661V16.5661C16.5678 16.186 16.4168 15.8214 16.148 15.5526C15.8792 15.2838 15.5146 15.1328 15.1345 15.1328C14.7544 15.1328 14.3898 15.2838 14.121 15.5526C13.8522 15.8214 13.7012 16.186 13.7012 16.5661V25.1661C13.7012 25.5463 13.8522 25.9108 14.121 26.1796C14.3898 26.4484 14.7544 26.5995 15.1345 26.5995Z" fill="#D71D1D"/>
<path d="M20.8669 26.5995C21.2471 26.5995 21.6117 26.4484 21.8805 26.1796C22.1493 25.9108 22.3003 25.5463 22.3003 25.1661V16.5661C22.3003 16.186 22.1493 15.8214 21.8805 15.5526C21.6117 15.2838 21.2471 15.1328 20.8669 15.1328C20.4868 15.1328 20.1222 15.2838 19.8534 15.5526C19.5846 15.8214 19.4336 16.186 19.4336 16.5661V25.1661C19.4336 25.5463 19.5846 25.9108 19.8534 26.1796C20.1222 26.4484 20.4868 26.5995 20.8669 26.5995Z" fill="#D71D1D"/>
</g>
<defs>
<clipPath id="clip0_2343_12583">
<rect width="34.4" height="34.4" fill="white" transform="translate(0.800781 0.800781)"/>
</clipPath>
</defs>
</svg>
